@startuml
title EPDScope
skinparam classAttributeIconSize 0
skinparam linetype ortho
hide empty members

class EPDScope <<SMC>> {
  sem: Sem_044
}
class scopeType <<Property>> {
  valueType: xs:string
  sem: Sem_045
}
class coveredProductReferences <<SML>> {
  sem: Sem_046
}
class scopeDescription <<MLP>> {
  sem: Sem_047
}

EPDScope *-- "1" scopeType
EPDScope *-- "0..1" coveredProductReferences
EPDScope *-- "0..1" scopeDescription
@enduml