@startuml
title representativenessReference
skinparam classAttributeIconSize 0
skinparam linetype ortho
hide empty members

class representativenessReference <<SMC>> {
  sem: Sem_039
}
class referenceFlow.id <<Property>> {
  valueType: xs:string
  sem: Sem_040
}
class referenceFlow.amount <<Property>> {
  valueType: xs:string
  sem: Sem_041
}
class referenceYear <<Property>> {
  valueType: xs:string
  sem: Sem_042
}
class dataSetValidUntil <<Property>> {
  valueType: xs:string
  sem: Sem_043
}
class timeRepresentativenessDescription <<Property>> {
  valueType: xs:string
  sem: Sem_044
}
class location <<Property>> {
  valueType: xs:string
  sem: Sem_045
}
class geographicalDescription <<Property>> {
  valueType: xs:string
  sem: Sem_046
}
class technologyDescription <<Property>> {
  valueType: xs:string
  sem: Sem_047
}
class technicalPurpose <<Property>> {
  valueType: xs:string
  sem: Sem_048
}
class pictogramSource <<Property>> {
  valueType: xs:string
  sem: Sem_049
}
class flowDiagramSource <<Property>> {
  valueType: xs:string
  sem: Sem_050
}
class energyModel <<Property>> {
  valueType: xs:string
  sem: Sem_051
}

representativenessReference *-- "1" referenceFlow.id
representativenessReference *-- "1" referenceFlow.amount
representativenessReference *-- "1" referenceYear
representativenessReference *-- "1" dataSetValidUntil
representativenessReference *-- "1" timeRepresentativenessDescription
representativenessReference *-- "1" location
representativenessReference *-- "1" geographicalDescription
representativenessReference *-- "1" technologyDescription
representativenessReference *-- "1" technicalPurpose
representativenessReference *-- "1" pictogramSource
representativenessReference *-- "1" flowDiagramSource
representativenessReference *-- "0..1" energyModel
@enduml