@startuml
title EPD Type III Model
skinparam classAttributeIconSize 0
skinparam linetype ortho
hide empty members

package "identificationPublication" {
class identificationPublication <<SMC>> {
  sem: Sem_001
}
class documentIds <<SML>> {
  sem: Sem_002
}
class programOperatorVersion <<Property>> {
  valueType: xs:string
  sem: Sem_003
}
class dateOfIssue <<Property>> {
  valueType: xs:date
  sem: Sem_004
}
class validUntil <<Property>> {
  valueType: xs:date
  sem: Sem_005
}
class languages <<SML>> {
  sem: Sem_006
}
class sourceDataFormat <<Property>> {
  valueType: xs:string
  sem: Sem_007
}
class declarationUrl <<Property>> {
  valueType: xs:string
  sem: Sem_008
}
}
package "programOperatorVerification" {
class programOperatorVerification <<SMC>> {
  sem: Sem_009
}
class programOperator <<SMC>> {
  sem: Sem_010
}
class Company <<Property>> {
  valueType: xs:string
  sem: Sem_011
}
class EmailAddress <<SMC>> {
  sem: Sem_012
}
class EmailAddress <<Property>> {
  valueType: xs:string
  sem: Sem_013
}
class thirdPartyVerifier <<SMC>> {
  sem: Sem_010
}
class verifierAccreditationId <<Property>> {
  valueType: xs:string
  sem: Sem_014
}
class epdDeveloper <<SMC>> {
  sem: Sem_010
}
class Company <<MLP>> {
  sem: Sem_015
}
class verificationType <<Property>> {
  valueType: xs:string
  sem: Sem_016
}
class verificationDate <<Property>> {
  valueType: xs:date
  sem: Sem_017
}
}
package "manufacturerProduct" {
class manufacturerProduct <<SMC>> {
  sem: Sem_018
}
class manufacturerName <<MLP>> {
  sem: Sem_019
}
class manufacturingSites <<SML>> {
  sem: Sem_020
}
class ManufacturingSite <<SMC>> {
sem: Sem_020_1
}
class SiteIdentifiers <<SML>> {
sem: Sem_020_2_SML
}
class SiteIdentifier <<SMC>> {
sem: Sem_020_2
}
class identifierScheme <<Property>> {
valueType: xs:string
sem: Sem_020_2_1
}
class identifierValue <<Property>> {
valueType: xs:string
sem: Sem_020_2_2
}
class siteName <<Property>> {
valueType: xs:string
sem: Sem_020_3
}
class siteType <<Property>> {
valueType: xs:string
sem: Sem_020_4
}
class siteOperator <<Property>> {
valueType: xs:string
sem: Sem_020_5
}
class Location <<SMC>> {
sem: Sem_020_6
}
class countryCode <<Property>> {
valueType: xs:string
sem: Sem_020_7
}
class region <<Property>> {
valueType: xs:string
sem: Sem_020_8
}
class locality <<Property>> {
valueType: xs:string
sem: Sem_020_9
}
class latitude <<Property>> {
valueType: xs:decimal
sem: Sem_020_10
}
class longitude <<Property>> {
valueType: xs:decimal
sem: Sem_020_11
}
class LocationCodes <<SML>> {
sem: Sem_020_12_SML
}
class LocationCode <<SMC>> {
sem: Sem_020_12
}
class codingSystem <<Property>> {
valueType: xs:string
sem: Sem_020_12_1
}
class code <<Property>> {
valueType: xs:string
sem: Sem_020_12_2
}
class productName <<MLP>> {
  sem: Sem_021
}
class productArticleNumberOfManufacturer <<Property>> {
  valueType: xs:string
  sem: Sem_022
}
class productDescription <<MLP>> {
  sem: Sem_023
}
class productImage <<File>> {
  sem: Sem_024
}
class massPerDeclaredUnit <<Property>> {
  valueType: xs:decimal
  sem: Sem_025
}
class referenceServiceLife <<Property>> {
  valueType: xs:decimal
  sem: Sem_026
}
class applicableJurisdictions <<SML>> {
  sem: Sem_027
}
class manufacturingDescription <<MLP>> {
  sem: Sem_028
}
}
package "LCAMethodology" {
class LCAMethodology <<SMC>> {
  sem: Sem_029
}
class lcaReferenceYear <<Property>> {
  valueType: xs:string
  sem: Sem_030
}
class timeRepresentativenessDescription <<Property>> {
  valueType: xs:string
  sem: Sem_032
}
class geographicalScope <<Property>> {
  valueType: xs:string
  sem: Sem_033
}
class geographicalDescription <<Property>> {
  valueType: xs:string
  sem: Sem_034
}
class technologyDescription <<Property>> {
  valueType: xs:string
  sem: Sem_035
}
class lcaEnergyModel <<Property>> {
  valueType: xs:string
  sem: Sem_037
}
class DeclaredStages <<SML>> {
  sem: Sem_038
}
}
package "lca_StandardsPcr" {
class lca_StandardsPcr <<SMC>> {
  sem: Sem_039
}
class standardsCompliance <<SML>> {
  sem: Sem_040
}
class productCategoryRules <<SML>> {
  sem: Sem_041
}
}
package "epdDocument" {
class epdDocument <<File>> {
  sem: Sem_042
}
}
package "EnvironmentalResults" {
class EnvironmentalResults <<SML>> {
  sem: Sem_043
}
}
package "EPDScope" {
class EPDScope <<SMC>> {
  sem: Sem_044
}
class scopeType <<Property>> {
  valueType: xs:string
  sem: Sem_045
}
class coveredProductReferences <<SML>> {
  sem: Sem_046
}
class scopeDescription <<MLP>> {
  sem: Sem_047
}
}
package "ContentDeclaration" {
class ContentDeclaration <<SMC>> {
  sem: Sem_048
}
class productMass <<Property>> {
  valueType: xs:decimal
  sem: Sem_049
}
class recycledContentPercentage <<Property>> {
  valueType: xs:decimal
  sem: Sem_050
}
class biogenicCarbonContent <<SMC>> {
  sem: Sem_051
}
class biogenicCarbonContentProduct <<Property>> {
  valueType: xs:decimal
  sem: Sem_052
}
class biogenicCarbonContentPackaging <<Property>> {
  valueType: xs:decimal
  sem: Sem_053
}
}
package "FunctionalUnit" {
class FunctionalUnit <<SMC>> {
  sem: Sem_054
}
class quantity <<Property>> {
  valueType: xs:decimal
  sem: Sem_055
}
class unit <<Property>> {
  valueType: xs:string
  sem: Sem_056
}
class description <<MLP>> {
  sem: Sem_057
}
}
package "DeclaredUnit" {
class DeclaredUnit <<SMC>> {
  sem: Sem_058
}
class quantity <<Property>> {
  valueType: xs:decimal
  sem: Sem_055
}
class unit <<Property>> {
  valueType: xs:string
  sem: Sem_056
}
class description <<MLP>> {
  sem: Sem_057
}
}

identificationPublication *-- "1" documentIds
identificationPublication *-- "1" programOperatorVersion
identificationPublication *-- "1" dateOfIssue
identificationPublication *-- "1" validUntil
identificationPublication *-- "1" languages
identificationPublication *-- "0..1" sourceDataFormat
identificationPublication *-- "0..1" declarationUrl
programOperatorVerification *-- "1" programOperator
programOperator *-- "0..*" Company
programOperator *-- "0..*" EmailAddress
EmailAddress *-- "1" EmailAddress
programOperatorVerification *-- "0..1" thirdPartyVerifier
thirdPartyVerifier *-- "0..1" verifierAccreditationId
programOperatorVerification *-- "0..1" epdDeveloper
epdDeveloper *-- "1" Company
programOperatorVerification *-- "0..1" verificationType
programOperatorVerification *-- "0..1" verificationDate
manufacturerProduct *-- "1" manufacturerName
manufacturerProduct *-- "0..1" manufacturingSites
manufacturerProduct *-- "1" productName
manufacturerProduct *-- "1" productArticleNumberOfManufacturer
manufacturerProduct *-- "0..1" productDescription
manufacturerProduct *-- "0..1" productImage
manufacturerProduct *-- "0..1" massPerDeclaredUnit
manufacturerProduct *-- "0..1" referenceServiceLife
manufacturerProduct *-- "0..1" applicableJurisdictions
manufacturerProduct *-- "0..1" manufacturingDescription
manufacturingSites *-- "0..*" ManufacturingSite
ManufacturingSite *-- "0..1" SiteIdentifiers
SiteIdentifiers *-- "0..*" SiteIdentifier
SiteIdentifier *-- "1" identifierScheme
SiteIdentifier *-- "1" identifierValue
ManufacturingSite *-- "0..1" siteName
ManufacturingSite *-- "0..1" siteType
ManufacturingSite *-- "0..1" siteOperator
ManufacturingSite *-- "0..1" Location
Location *-- "0..1" countryCode
Location *-- "0..1" region
Location *-- "0..1" locality
Location *-- "0..1" latitude
Location *-- "0..1" longitude
Location *-- "0..1" LocationCodes
LocationCodes *-- "0..*" LocationCode
LocationCode *-- "1" codingSystem
LocationCode *-- "1" code
LCAMethodology *-- "1" lcaReferenceYear
LCAMethodology *-- "0..1" timeRepresentativenessDescription
LCAMethodology *-- "1" geographicalScope
LCAMethodology *-- "0..1" geographicalDescription
LCAMethodology *-- "0..1" technologyDescription
LCAMethodology *-- "1" lcaEnergyModel
LCAMethodology *-- "1" DeclaredStages
lca_StandardsPcr *-- "1" standardsCompliance
lca_StandardsPcr *-- "1" productCategoryRules
EPDScope *-- "1" scopeType
EPDScope *-- "0..1" coveredProductReferences
EPDScope *-- "0..1" scopeDescription
ContentDeclaration *-- "0..1" productMass
ContentDeclaration *-- "0..1" recycledContentPercentage
ContentDeclaration *-- "0..1" biogenicCarbonContent
biogenicCarbonContent *-- "0..1" biogenicCarbonContentProduct
biogenicCarbonContent *-- "0..1" biogenicCarbonContentPackaging
FunctionalUnit *-- "1" quantity
FunctionalUnit *-- "1" unit
FunctionalUnit *-- "0..1" description
DeclaredUnit *-- "1" quantity
DeclaredUnit *-- "1" unit
DeclaredUnit *-- "0..1" description
@enduml